# xmcd
#
# Track frame offsets:
#	150
#	21356
#	35826
#	56461
#	73622
#	98220
#	120978
#	141763
#	155049
#	166546
#	185427
#	207219
#	225569
#	243672
#	263286
#	284898
#	298383
#	317123
#
# Disc length: 4453 seconds
#
# Revision: 0
# Processed by: cddbd v1.5.2PL0 Copyright (c) Steve Scherf et al.
# Submitted via: audiograbber 1.83.01
#
DISCID=0c116312
DTITLE=ZZZ - Ich beobachte dich - CD 2
DYEAR=2011
DGENRE=Deutsch
TTITLE0=Eisbrenner and Simone Thomalla - Ich sterbe für dich
TTITLE1=Eisbrenner - Ohne Dich
TTITLE2=Eisbrenner - Der letzte Träumer
TTITLE3=Eisbrenner - Weit hinter der Zeit
TTITLE4=Eisbrenner - Weiße Fahnen
TTITLE5=Eisbrenner - Kein Wort zu viel
TTITLE6=Eisbrenner - Die Bösen sterben nie
TTITLE7=Eisbrenner - Eldorado Song
TTITLE8=Der wilde Garten - Koffer drin
TTITLE9=Der wilde Garten - Heut ruht der See
TTITLE10=Der wilde Garten - 8/8 Choro
TTITLE11=Der wilde Garten - Magier
TTITLE12=Hausboot - Eisernes Reich
TTITLE13=Hausboot - Wär' nicht schwer
TTITLE14=Hausboot - Du gehst vorbei
TTITLE15=Hausboot - Zeit die dir bleibt
TTITLE16=Eisbrenner - Blues von der letzten Gelegenheit (live 2010)
TTITLE17=Eisbrenner - Komm her
EXTD=
EXTT0=
EXTT1=
EXTT2=
EXTT3=
EXTT4=
EXTT5=
EXTT6=
EXTT7=
EXTT8=
EXTT9=
EXTT10=
EXTT11=
EXTT12=
EXTT13=
EXTT14=
EXTT15=
EXTT16=
EXTT17=
PLAYORDER=
